# xmcd
#
# Track frame offsets: 
#        150
#        18931
#        35363
#        49716
#        67927
#        84173
#        101850
#        121328
#        136318
#        154016
#        174564
#        192505
#        211250
#
# Disc length: 3051 seconds
#
# Revision: 2
# Processed by: cddbd v1.4b42PL1 Copyright (c) Steve Scherf et al.
# Submitted via: ExactAudioCopy v0.90a11
#
DISCID=a60be90d
DTITLE=Gabrielle - Rise
DYEAR=1900
DGENRE=
TTITLE0=Sunshine
TTITLE1=Rise
TTITLE2=When A Woman
TTITLE3=Tell Me What You Dream
TTITLE4=5 O'Clock
TTITLE5=Should I Stay
TTITLE6=Over You
TTITLE7=Falling
TTITLE8=If You Love Me
TTITLE9=Independence Day
TTITLE10=Gonna Get Better
TTITLE11=There's Nothing I Won't Do For You
TTITLE12=Rise (Acoustic Version)
EXTD=
EXTT0=
EXTT1=
EXTT2=
EXTT3=
EXTT4=
EXTT5=
EXTT6=
EXTT7=
EXTT8=
EXTT9=
EXTT10=
EXTT11=
EXTT12=
PLAYORDER=
